# xmcd CD database file
#
# Track frame offsets:
#	150
#	17187
#	36217
#
# Disc length: 708 seconds
#
# Revision: 5
# Processed by: cddbd v1.5PL3 Copyright (c) Steve Scherf et al.
# Submitted via: CDex 1.50beta9
#
DISCID=1d02c203
DTITLE=ハッピー7 - 幸せビーム！好き好きビーム！
DYEAR=2002
DGENRE=J-pop
TTITLE0=幸せビーム！好き好きビーム！
TTITLE1=よくある親子のセレナーデ（ハッピー7 Version）
TTITLE2=幸せビーム！好き好きビーム！(Instrumental)
EXTD=YEAR: 2002
EXTT0=
EXTT1=
EXTT2=
PLAYORDER=
